<?xml version="1.0" encoding="utf-8"?>
<!-- Generator: Adobe Illustrator 23.0.4, SVG Export Plug-In . SVG Version: 6.00 Build 0)  -->
<svg version="1.1" baseProfile="tiny" id="Laag_1" xmlns="http://www.w3.org/2000/svg" xmlns:xlink="http://www.w3.org/1999/xlink"
	 x="0px" y="0px" viewBox="0 0 80 80" xml:space="preserve">
<g>
	<g>
		<path fill="#020203" d="M79.8,60.7c-0.7-2.2-1.9-4.2-3.5-5.8c-2.6-2.6-6.2-4.1-9.8-4.1c-1.9,0-3.8,0.4-5.5,1.1L47.3,38.2l18.2-18
			l4.3-0.1c0.5,0,1-0.3,1.3-0.7l6.2-10.4c0.4-0.6,0.3-1.4-0.2-1.9l-5.3-5.3c-0.5-0.5-1.3-0.6-1.9-0.2L59.4,7.7C59,8,58.7,8.4,58.7,9
			l-0.1,4.3L40.4,31.4L28,18.9c1.3-7.6-3.8-14.8-11.4-16.1C13.1,2.2,9.5,3,6.5,5C5.8,5.4,5.6,6.4,6.1,7.1c0.1,0.2,0.3,0.4,0.5,0.5
			l6.9,3.9c1.5,0.9,1.8,3.5,0.6,5.6s-3.6,3.3-5.1,2.5L2.6,16c-0.7-0.4-1.7-0.1-2.1,0.6c-0.1,0.3-0.2,0.5-0.2,0.8
			c0.5,7.7,7.1,13.5,14.8,13c1.6-0.1,3.1-0.5,4.6-1.1L31,40.7l-4.9,4.9L25,44.5c-1.2-1.2-3.2-1.2-4.4,0L19.1,46
			c-1.2,1.1-1.2,3-0.2,4.2l-18,18c-1.2,1.2-1.3,3.1-0.1,4.3c0,0,0.1,0.1,0.1,0.1l5.1,5.1c1.2,1.2,3.1,1.3,4.3,0.1
			c0,0,0.1-0.1,0.1-0.1l18-18c1.2,1.1,3.1,1,4.2-0.2l1.5-1.5c1.2-1.2,1.3-3.1,0.1-4.3c0,0-0.1-0.1-0.1-0.1l-1.1-1.1l4.9-5l14.8,14.8
			c-1.3,7.6,3.8,14.8,11.4,16c4.5,0.8,9.1-0.7,12.3-4c0.6-0.6,0.5-1.6-0.1-2.1c-0.2-0.1-0.4-0.3-0.6-0.3l-8.6-2.3
			c-0.8-0.3-1.5-0.9-1.8-1.8c-0.4-1.1-0.5-2.4-0.2-3.6c0.6-2.4,2.7-4.1,4.4-3.6l8.5,2.3c0.1,0,0.3,0,0.4,0c0.8,0,1.5-0.7,1.5-1.5
			C80,61.2,79.9,60.9,79.8,60.7z M61.1,14.9c0.3-0.3,0.4-0.6,0.4-1l0.1-4.1l8.6-5.1l3.7,3.7l-5,8.6l-4.1,0.2c-0.4,0-0.8,0.2-1,0.4
			L45.2,36.1l-2.6-2.6L61.1,14.9z M8.3,75.6l-5.2-5.2l18.1-18l2.6,2.6l2.5,2.6L8.3,75.6z M30.6,57.3l-2-2l-0.8-0.8l-6.4-6.4l1.5-1.5
			l9.1,9.3L30.6,57.3z M30.9,50.4l-2.6-2.6l4.9-4.9l2.6,2.6L30.9,50.4z M70.3,57.7c-0.5-0.1-0.9-0.2-1.4-0.2c-3.3,0.3-6.1,2.7-6.7,6
			c-0.5,1.8-0.4,3.8,0.3,5.6c0.7,1.7,2.1,3,3.8,3.5l5.7,1.5c-5.2,3.1-11.8,1.4-14.9-3.8c-1.4-2.4-1.9-5.3-1.2-8.1
			c0.1-0.5,0-1-0.4-1.4L21.1,26.5c-0.5-0.5-1.2-0.5-1.8-0.2c-1.6,0.8-3.3,1.3-5.1,1.3c-4.6,0-8.7-2.9-10.2-7.2l3.5,1.9
			c0.8,0.5,1.7,0.7,2.6,0.7c2.8-0.2,5.3-1.8,6.6-4.3C18.8,15,18,10.6,15,8.9l-4.4-2.5c5.7-2,11.9,0.9,13.9,6.6
			c0.7,2,0.8,4.1,0.4,6.1c-0.1,0.5,0,1,0.4,1.4l34.4,34.4c0.5,0.5,1.2,0.6,1.8,0.3c1.6-0.8,3.3-1.3,5.1-1.3c3.9,0,7.4,2,9.4,5.4
			L70.3,57.7z"/>
	</g>
</g>
</svg>
