<?xml version="1.0" encoding="utf-8"?>
<!-- Generator: Adobe Illustrator 23.0.4, SVG Export Plug-In . SVG Version: 6.00 Build 0)  -->
<svg version="1.1" baseProfile="tiny" id="Laag_1" xmlns="http://www.w3.org/2000/svg" xmlns:xlink="http://www.w3.org/1999/xlink"
	 x="0px" y="0px" viewBox="0 0 80 80" xml:space="preserve">
<g>
	<path fill="#020203" d="M74.7,20.3c-3.6-6.1-8.4-10.9-14.5-14.5c-6.1-3.6-12.7-5.3-19.9-5.3c-7.2,0-13.9,1.8-19.9,5.3
		C14.2,9.4,9.4,14.2,5.9,20.3C2.3,26.4,0.5,33,0.5,40.2c0,8.7,2.5,16.4,7.6,23.4c5.1,6.9,11.6,11.7,19.6,14.4
		c0.9,0.2,1.6,0.1,2.1-0.4c0.4-0.4,0.7-0.9,0.7-1.6c0-0.1,0-1,0-2.8c0-1.8,0-3.3,0-4.6l-1.2,0.2C28.4,69,27.5,69,26.3,69
		c-1.2,0-2.4-0.1-3.6-0.4c-1.2-0.2-2.4-0.7-3.5-1.6c-1.1-0.8-1.8-1.9-2.3-3.2l-0.5-1.2c-0.3-0.8-0.9-1.7-1.6-2.6
		c-0.7-1-1.5-1.6-2.3-2l-0.4-0.3c-0.2-0.2-0.5-0.4-0.7-0.6c-0.2-0.2-0.4-0.5-0.5-0.7c-0.1-0.2,0-0.4,0.3-0.6
		c0.3-0.2,0.8-0.2,1.5-0.2l1,0.2c0.7,0.1,1.5,0.6,2.6,1.2c1,0.7,1.9,1.6,2.5,2.7c0.8,1.4,1.7,2.5,2.9,3.2c1.1,0.7,2.3,1.1,3.4,1.1
		c1.1,0,2.1-0.1,2.9-0.3c0.8-0.2,1.6-0.4,2.3-0.8c0.3-2.3,1.2-4.1,2.5-5.3c-2-0.2-3.7-0.5-5.3-0.9c-1.6-0.4-3.2-1.1-4.9-2
		c-1.7-0.9-3.1-2.1-4.2-3.5c-1.1-1.4-2-3.2-2.7-5.4c-0.7-2.2-1.1-4.8-1.1-7.8c0-4.2,1.4-7.7,4.1-10.7c-1.3-3.1-1.2-6.7,0.4-10.6
		c1-0.3,2.5-0.1,4.4,0.7c2,0.8,3.4,1.4,4.3,2c0.9,0.6,1.6,1,2.2,1.4c3.2-0.9,6.5-1.3,9.9-1.3c3.4,0,6.7,0.4,9.9,1.3l2-1.2
		c1.3-0.8,2.9-1.6,4.8-2.3c1.8-0.7,3.2-0.9,4.2-0.6c1.6,3.9,1.7,7.4,0.4,10.6c2.7,2.9,4.1,6.5,4.1,10.7c0,2.9-0.4,5.5-1.1,7.8
		c-0.7,2.3-1.6,4.1-2.7,5.4c-1.1,1.4-2.5,2.5-4.2,3.4c-1.7,0.9-3.3,1.6-4.9,2c-1.6,0.4-3.3,0.7-5.3,0.9c1.8,1.6,2.7,4,2.7,7.3V76
		c0,0.6,0.2,1.1,0.6,1.6c0.4,0.4,1.1,0.5,2,0.4c8-2.7,14.5-7.4,19.6-14.4c5.1-6.9,7.6-14.7,7.6-23.4C80,33,78.2,26.4,74.7,20.3z"/>
</g>
<g>
</g>
<g>
</g>
<g>
</g>
<g>
</g>
<g>
</g>
<g>
</g>
</svg>
