<?xml version="1.0" encoding="utf-8"?>
<!-- Generator: Adobe Illustrator 23.0.4, SVG Export Plug-In . SVG Version: 6.00 Build 0)  -->
<svg version="1.1" baseProfile="tiny" id="Laag_1" xmlns="http://www.w3.org/2000/svg" xmlns:xlink="http://www.w3.org/1999/xlink"
	 x="0px" y="0px" viewBox="0 0 80 80" xml:space="preserve">
<g>
	<g>
		<path fill="#020203" d="M70.5,9.3h-61c-5.4,0-9.9,4.4-9.9,9.9v41.7c0,5.4,4.4,9.9,9.9,9.9h61c5.4,0,9.9-4.4,9.9-9.9V19.2
			C80.4,13.7,75.9,9.3,70.5,9.3z M75.9,60.8c0,3-2.4,5.4-5.4,5.4h-61c-3,0-5.4-2.4-5.4-5.4V19.2c0-3,2.4-5.4,5.4-5.4h61
			c3,0,5.4,2.4,5.4,5.4L75.9,60.8L75.9,60.8z"/>
		<path fill="#020203" d="M50.5,39.5l19.7-17.7c0.9-0.8,1-2.3,0.2-3.2c-0.8-0.9-2.3-1-3.2-0.2L40,42.9l-5.3-4.7c0,0,0,0,0-0.1
			c-0.1-0.1-0.2-0.2-0.4-0.3L12.7,18.4c-0.9-0.8-2.4-0.8-3.2,0.2c-0.8,0.9-0.8,2.4,0.2,3.2l20,17.8L9.8,58.3c-0.9,0.9-1,2.3-0.1,3.2
			c0.5,0.5,1.1,0.7,1.7,0.7c0.6,0,1.1-0.2,1.5-0.6l20.2-18.9l5.5,4.9c0.4,0.4,1,0.6,1.5,0.6c0.5,0,1.1-0.2,1.5-0.6l5.6-5l20.1,19.1
			c0.4,0.4,1,0.6,1.6,0.6c0.6,0,1.2-0.2,1.6-0.7c0.9-0.9,0.8-2.3-0.1-3.2L50.5,39.5z"/>
	</g>
</g>
</svg>
