<?xml version="1.0" encoding="utf-8"?>
<!-- Generator: Adobe Illustrator 23.0.4, SVG Export Plug-In . SVG Version: 6.00 Build 0)  -->
<svg version="1.1" baseProfile="tiny" id="Laag_1" xmlns="http://www.w3.org/2000/svg" xmlns:xlink="http://www.w3.org/1999/xlink"
	 x="0px" y="0px" viewBox="0 0 50 50" xml:space="preserve">
<path d="M0.2,45.8c0-13.8,0-27.6,0-41.5c0-0.1,0.1-0.2,0.1-0.3c0.3-1.1,0.8-2,1.7-2.8c0.7-0.6,1.5-0.9,2.4-1.2c13.8,0,27.6,0,41.5,0
	c0.1,0,0.2,0.1,0.3,0.1c1.1,0.3,2,0.8,2.8,1.7c0.6,0.7,0.9,1.5,1.2,2.4c0,13.8,0,27.6,0,41.5c0,0.1-0.1,0.2-0.1,0.3
	c-0.3,1.1-0.8,2-1.7,2.8c-0.7,0.6-1.5,0.9-2.4,1.2C32,50,18.2,50,4.3,50c-0.1,0-0.2-0.1-0.3-0.1c-1.1-0.3-2-0.8-2.8-1.7
	C0.7,47.5,0.4,46.7,0.2,45.8z M42.5,42.5c0-0.2,0-0.3,0-0.4c0-4.6,0-9.3,0-13.9c0-1-0.2-2.1-0.6-3c-1.3-3.3-3.8-5.2-7.4-5.6
	c-2.7-0.3-4.9,0.9-6.6,3c-0.1,0.1-0.2,0.2-0.3,0.3c0,0-0.1,0-0.1,0c0-0.9,0-1.9,0-2.8c-2.5,0-4.9,0-7.4,0c0,7.5,0,14.9,0,22.3
	c2.5,0,4.9,0,7.4,0c0-0.2,0-0.4,0-0.6c0-3.5,0-7,0-10.5c0-0.8,0-1.7,0.1-2.5c0.1-1.5,1.2-2.7,2.7-3.2c1.4-0.4,2.9,0,3.8,1.1
	c0.7,0.8,1,1.8,1,2.8c0,4.1,0,8.1,0,12.2c0,0.2,0,0.4,0,0.6C37.6,42.5,40,42.5,42.5,42.5z M7.7,20.1c0,7.5,0,14.9,0,22.3
	c2.5,0,4.9,0,7.4,0c0-7.5,0-14.9,0-22.3C12.6,20.1,10.1,20.1,7.7,20.1z M15.8,11.4c0-2.4-2-4.5-4.4-4.5c-2.5,0-4.5,1.8-4.5,4.5
	c0,2.6,2,4.4,4.4,4.5C13.8,15.9,15.8,13.8,15.8,11.4z"/>
<g>
</g>
<g>
</g>
<g>
</g>
<g>
</g>
<g>
</g>
<g>
</g>
</svg>
