<?xml version="1.0" encoding="utf-8"?>
<!-- Generator: Adobe Illustrator 23.0.4, SVG Export Plug-In . SVG Version: 6.00 Build 0)  -->
<svg version="1.1" baseProfile="tiny" id="Laag_1" xmlns="http://www.w3.org/2000/svg" xmlns:xlink="http://www.w3.org/1999/xlink"
	 x="0px" y="0px" viewBox="0 0 50 50" xml:space="preserve">
<path d="M32.8,49.4c-0.2,0-0.5,0-0.7,0c-0.7-0.3-0.9-0.8-0.9-1.6c0-2,0-4.1,0-6.1c0-1.9-0.2-3.6-1.6-5.1c0.1,0,0.2-0.1,0.3-0.1
	c1.1-0.2,2.1-0.3,3.2-0.6c2.9-0.8,5.3-2.3,6.6-5.1c0.6-1.4,1-2.9,1.2-4.4c0.3-3.1,0-6.1-2.2-8.5c-0.1-0.1-0.2-0.4-0.1-0.6
	c0.6-1.8,0.5-3.6-0.1-5.4c-0.3-1.1-0.5-1.1-1.6-1c-0.1,0-0.1,0-0.2,0.1c-1.7,0.4-3.3,1.2-4.7,2.1c-0.5,0.3-0.9,0.3-1.4,0.2
	c-1.5-0.3-2.9-0.5-4.4-0.6c-2.3-0.2-4.6,0.1-6.9,0.6c-0.3,0.1-0.6,0-0.9-0.2c-1.4-0.7-2.7-1.4-4.1-2c-0.6-0.3-1.3-0.3-2-0.3
	c-0.1,0-0.4,0.2-0.5,0.3c-0.7,1.9-1,3.9-0.3,5.9c0.1,0.3,0.1,0.6-0.2,0.8c-0.8,0.9-1.4,1.9-1.8,3.1c-0.7,2-0.6,4.1-0.3,6.2
	c0.3,1.9,0.9,3.8,2.1,5.3c1.7,2.1,3.9,3.1,6.5,3.7c0.8,0.2,1.6,0.3,2.5,0.5c-0.9,0.9-1.3,1.9-1.5,3.1c0,0.1-0.1,0.3-0.2,0.3
	c-1.8,0.7-3.6,1-5.3-0.2c-0.9-0.6-1.4-1.4-1.9-2.2c-0.8-1.3-2-2.1-3.5-2.3c-0.4,0-0.8,0.2-1.2,0.3c0.2,0.3,0.4,0.7,0.7,1
	c0.4,0.4,1.1,0.7,1.4,1.2c0.7,0.9,1.2,1.9,1.7,2.9c0.4,0.8,0.8,1.4,1.6,1.9c1.9,1.2,4,1.2,6.2,0.9c0.2,0,0.4-0.1,0.6-0.1
	c0,1.5,0,2.9,0,4.3c0,0.8-0.2,1.3-0.9,1.6c-0.2,0-0.5,0-0.7,0c0,0-0.1-0.1-0.1-0.1c-3.4-1.1-6.4-2.8-8.9-5.2
	c-4-3.7-6.6-8.2-7.7-13.6c-0.2-0.9-0.3-1.9-0.5-2.8c0-1.3,0-2.7,0-4c0-0.4,0.1-0.7,0.1-1.1c0.7-5.6,3-10.5,6.9-14.5
	c3.7-3.8,8.1-6.2,13.4-7.1c1-0.2,2.1-0.3,3.1-0.4c0.9,0,1.9,0,2.8,0c0.7,0.1,1.4,0.1,2.1,0.2c4.7,0.7,8.9,2.6,12.5,5.6
	c4.5,3.8,7.4,8.6,8.5,14.5c0.2,1,0.3,1.9,0.4,2.9c0,1.3,0,2.5,0,3.8c-0.1,0.7-0.2,1.5-0.3,2.2c-1.3,7.2-5,12.7-11,16.8
	C36.8,47.8,34.9,48.7,32.8,49.4z"/>
<g>
</g>
<g>
</g>
<g>
</g>
<g>
</g>
<g>
</g>
<g>
</g>
</svg>
